<svg width="62" height="62" viewBox="0 0 62 62" fill="none" xmlns="http://www.w3.org/2000/svg">
<circle cx="31" cy="31" r="31" fill="#6937D3"/>
<path d="M36.8438 16.5428C35.3847 14.8709 33.3466 13.9502 31.0971 13.9502C28.8356 13.9502 26.7909 14.8653 25.3384 16.5268C23.8703 18.2067 23.1549 20.4897 23.3229 22.955C23.6558 27.8186 27.1433 31.7751 31.0971 31.7751C35.051 31.7751 38.5324 27.8194 38.8706 22.9565C39.0408 20.5136 38.321 18.2353 36.8438 16.5428Z" fill="#F3EDFF"/>
<path d="M44.2929 49.6008H17.8989C17.5534 49.6055 17.2113 49.5285 16.8974 49.3753C16.5835 49.2221 16.3057 48.9965 16.0843 48.7151C15.5969 48.0968 15.4005 47.2525 15.5459 46.3986C16.1788 42.6729 18.1538 39.5432 21.2581 37.3461C24.016 35.3957 27.5095 34.3223 31.0959 34.3223C34.6823 34.3223 38.1758 35.3965 40.9337 37.3461C44.0379 39.5424 46.013 42.6721 46.6459 46.3978C46.7913 47.2517 46.5949 48.096 46.1075 48.7143C45.8861 48.9959 45.6084 49.2216 45.2945 49.3749C44.9806 49.5283 44.6384 49.6054 44.2929 49.6008Z" fill="#F3EDFF"/>
</svg>
