<svg width="20" height="20" viewBox="0 0 20 20" fill="none" xmlns="http://www.w3.org/2000/svg">
<path d="M7.28125 16.9648C7.28122 17.1776 7.04202 17.3027 6.86719 17.1807L5.8125 16.4453H7.28125V16.9648ZM11.8945 17.1807L11.8271 17.2148C11.6641 17.2701 11.4805 17.1512 11.4805 16.9648V16.4453H12.9492L11.8945 17.1807ZM7.18848 15.2031C7.24051 15.2033 7.2832 15.2461 7.2832 15.2988V15.7666C7.2832 15.8187 7.24116 15.8621 7.18848 15.8623L5.0127 15.8613C4.99329 15.8613 4.97453 15.8557 4.95898 15.8447L4.28711 15.376C4.21085 15.3232 4.24837 15.2034 4.34082 15.2031H7.18848ZM14.4219 15.2031C14.5142 15.2035 14.5518 15.3225 14.4756 15.376L13.8047 15.8447C13.789 15.8558 13.7696 15.8613 13.75 15.8613L11.5762 15.8623C11.524 15.8623 11.4805 15.8195 11.4805 15.7666V15.2988C11.4805 15.2466 11.5233 15.2031 11.5762 15.2031H14.4219ZM7.16504 14.0273C7.23025 14.0273 7.2832 14.0803 7.2832 14.1455V14.5381C7.2832 14.6033 7.23025 14.6562 7.16504 14.6562H3.89355C3.82834 14.6562 3.77539 14.6033 3.77539 14.5381V14.1455C3.77539 14.0803 3.82834 14.0273 3.89355 14.0273H7.16504ZM14.8691 14.0273C14.9344 14.0273 14.9873 14.0803 14.9873 14.1455V14.5381C14.9873 14.6033 14.9344 14.6562 14.8691 14.6562H11.5986C11.5334 14.6562 11.4805 14.6033 11.4805 14.5381V14.1455C11.4805 14.0803 11.5334 14.0273 11.5986 14.0273H14.8691ZM7.16699 12.9141C7.23113 12.9141 7.2832 12.9661 7.2832 13.0303V13.4561C7.2832 13.5202 7.23113 13.5723 7.16699 13.5723H3.8916C3.82747 13.5723 3.77539 13.5202 3.77539 13.4561V13.0303C3.77539 12.9661 3.82747 12.9141 3.8916 12.9141H7.16699ZM14.8721 12.9141C14.936 12.9143 14.9873 12.9663 14.9873 13.0303V13.4561C14.9873 13.5201 14.936 13.572 14.8721 13.5723H11.5967C11.5325 13.5723 11.4805 13.5202 11.4805 13.4561V13.0303C11.4805 12.9661 11.5325 12.9141 11.5967 12.9141H14.8721ZM7.30371 11.8906C7.29066 11.9213 7.28418 11.9553 7.28418 11.9912V12.4287C7.28418 12.4946 7.23054 12.5488 7.16406 12.5488H3.89551C3.82962 12.5488 3.77539 12.4953 3.77539 12.4287V12.0107C3.77539 11.9448 3.82896 11.8906 3.89551 11.8906H7.30371ZM14.8721 11.8906C14.938 11.8906 14.9922 11.9442 14.9922 12.0107V12.4287C14.9922 12.4946 14.9386 12.5488 14.8721 12.5488H11.6045C11.5386 12.5488 11.4844 12.4953 11.4844 12.4287V11.9912C11.4844 11.9553 11.4772 11.922 11.4648 11.8906H14.8721ZM14.8721 10.9961C14.9362 10.9962 14.9883 11.0482 14.9883 11.1123V11.5381C14.9883 11.6022 14.9362 11.6542 14.8721 11.6543H3.8916C3.82747 11.6543 3.77539 11.6022 3.77539 11.5381V11.1123C3.77539 11.0481 3.82747 10.9961 3.8916 10.9961H14.8721ZM14.8721 10.1211C14.9362 10.1212 14.9883 10.1732 14.9883 10.2373V10.6631C14.9883 10.7272 14.9362 10.7792 14.8721 10.7793H3.8916C3.82747 10.7793 3.77539 10.7272 3.77539 10.6631V10.2373C3.77539 10.1731 3.82747 10.1211 3.8916 10.1211H14.8721ZM14.8721 9.25391C14.9361 9.25398 14.9882 9.30604 14.9883 9.37012V9.7959C14.9883 9.86001 14.9361 9.91203 14.8721 9.91211H3.8916C3.82747 9.91211 3.77539 9.86006 3.77539 9.7959V9.37012C3.77543 9.30599 3.82749 9.25391 3.8916 9.25391H14.8721ZM14.8809 8.41406C14.9401 8.41406 14.9881 8.46222 14.9883 8.52148V8.96484C14.9883 9.02423 14.9402 9.07227 14.8809 9.07227H3.88281C3.82355 9.07214 3.77539 9.02416 3.77539 8.96484V8.52148C3.77553 8.46229 3.82363 8.41418 3.88281 8.41406H14.8809ZM6.87012 2.94531C7.0449 2.82464 7.28305 2.95014 7.2832 3.16211V8.13867C7.28322 8.19204 7.2989 8.24151 7.32617 8.2832H3.87695C3.82093 8.2831 3.77539 8.2377 3.77539 8.18164V5.27441C3.77554 5.1545 3.83456 5.04207 3.93359 4.97363L6.87012 2.94531ZM11.4824 3.16211C11.4825 2.95012 11.7207 2.82471 11.8955 2.94531L14.833 4.97363C14.932 5.0421 14.9901 5.15454 14.9902 5.27441V8.18164C14.9902 8.23774 14.9448 8.2832 14.8887 8.2832H11.4395C11.4668 8.2415 11.4824 8.19207 11.4824 8.13867V3.16211Z" fill="#696969"/>
</svg>
