<svg width="20" height="20" viewBox="0 0 20 20" fill="none" xmlns="http://www.w3.org/2000/svg">
<path d="M5.58124 10.1328H3.63703C3.50742 10.1328 3.40137 10.2389 3.40137 10.3685V15.2994C3.40137 15.429 3.50742 15.5351 3.63703 15.5351H5.58124C5.71321 15.5351 5.8169 15.429 5.8169 15.2994V10.3685C5.8169 10.2389 5.71321 10.1328 5.58124 10.1328ZM4.61031 11.8864C4.29924 11.8817 4.3016 11.4197 4.61031 11.415C4.91903 11.4221 4.91903 11.8817 4.61031 11.8864Z" fill="#666666"/>
<path d="M15.414 12.276L13.4111 12.8582C13.3418 13.5509 12.7122 14.1158 12.0161 14.1049C12.0161 14.1049 9.69505 14.1049 9.69505 14.1049C9.38624 14.099 9.38485 13.6397 9.69505 13.6336H12.0161C13.3114 13.5536 13.2243 11.7692 11.9077 11.7646C11.9077 11.7645 10.1946 11.7645 10.1946 11.7645C10.0532 11.7645 9.91419 11.7245 9.79637 11.6491C9.22034 11.2881 8.49839 10.7249 7.77691 10.7723C7.77692 10.7723 6.29004 10.7723 6.29004 10.7723V14.911C6.35602 14.9181 6.41964 14.9393 6.47855 14.9746L8.2977 16.0352C8.83025 16.3464 9.42641 16.5019 10.0226 16.5019C10.5221 16.5019 11.0217 16.3935 11.4883 16.172L16.0691 14.0036C17.085 13.5027 16.5049 11.9786 15.414 12.276Z" fill="#666666"/>
<path d="M11.5926 5.17966C11.907 5.20699 12.2067 5.32714 12.4521 5.52503C12.5965 5.64157 12.6171 5.84996 12.4975 5.99056C12.3777 6.13109 12.1628 6.15038 12.0183 6.03398C11.8584 5.90514 11.6598 5.83551 11.4561 5.83513C10.9539 5.83537 10.4986 6.27565 10.4985 6.88016C10.4986 7.48475 10.9542 7.92546 11.4565 7.92557C11.6644 7.92551 11.8596 7.85303 12.0203 7.72517C12.1656 7.60965 12.3794 7.63045 12.4983 7.77168C12.617 7.91309 12.5958 8.12161 12.4505 8.23722C12.1773 8.45454 11.8325 8.58718 11.4565 8.58724C10.5251 8.58713 9.81849 7.79571 9.81838 6.88016C9.81849 5.9646 10.5251 5.17356 11.4565 5.17346L11.5926 5.17966Z" fill="#666666"/>
<path fill-rule="evenodd" clip-rule="evenodd" d="M11.3694 3.10938C11.4583 3.10938 11.5466 3.11375 11.6339 3.12023C12.3734 3.1535 13.3314 3.28416 14.1659 3.70515C14.6769 3.96295 15.1487 4.33319 15.4917 4.85949C15.8354 5.38698 16.0369 6.0522 16.0369 6.88016C16.0369 7.70811 15.8354 8.37333 15.4917 8.90083C15.1487 9.42712 14.6769 9.79737 14.1659 10.0552C13.3314 10.4762 12.3734 10.6064 11.6339 10.6397C11.5466 10.6462 11.4583 10.6509 11.3694 10.6509C11.3488 10.6509 11.3283 10.6494 11.3078 10.649C11.2699 10.6494 11.2329 10.6509 11.1968 10.6509V10.6459C9.25263 10.5518 7.74121 8.88073 7.74121 6.88016C7.74121 4.87958 9.25262 3.20814 11.1968 3.11403V3.10938C11.2329 3.10938 11.2699 3.11051 11.3078 3.11093C11.3283 3.11057 11.3488 3.10938 11.3694 3.10938ZM11.3058 3.7726C9.72859 3.80844 8.42131 5.16318 8.42131 6.88016C8.42131 8.59713 9.72859 9.95148 11.3058 9.98733C11.3963 9.98626 11.4909 9.98385 11.5889 9.97958C13.0957 9.86163 14.3182 8.54043 14.3182 6.88016C14.3182 5.21987 13.0957 3.89827 11.5889 3.78035C11.4909 3.77607 11.3963 3.77366 11.3058 3.7726ZM14.1574 4.4676C14.6836 5.1247 14.9983 5.96803 14.9983 6.88016C14.9983 7.79213 14.6835 8.63527 14.1574 9.29232C14.456 9.09858 14.7171 8.85479 14.9177 8.54693C15.1834 8.13919 15.3568 7.60011 15.3568 6.88016C15.3568 6.1602 15.1834 5.62112 14.9177 5.21338C14.717 4.90544 14.4561 4.66137 14.1574 4.4676Z" fill="#666666"/>
</svg>
